HIERARCHY
ROOT hip
{
  OFFSET 0 0 0
  CHANNELS 6 Xposition Yposition Zposition Zrotation Yrotation Xrotation
  JOINT abdomen
  {
    OFFSET 0 20.6881 -0.73152
    CHANNELS 3 Zrotation Xrotation Yrotation
    JOINT chest
    {
      OFFSET 0 11.7043 -0.48768
      CHANNELS 3 Zrotation Xrotation Yrotation
      JOINT neck
      {
        OFFSET 0 22.1894 -2.19456
        CHANNELS 3 Zrotation Xrotation Yrotation
        JOINT head
        {
          OFFSET -0.24384 7.07133 1.2192
          CHANNELS 3 Zrotation Xrotation Yrotation
          JOINT leftEye
          {
            OFFSET 4.14528 8.04674 8.04672
            CHANNELS 3 Zrotation Xrotation Yrotation
            End Site
            {
              OFFSET 1 0 0
            }
          }
          JOINT rightEye
          {
            OFFSET -3.6576 8.04674 8.04672
            CHANNELS 3 Zrotation Xrotation Yrotation
            End Site
            {
              OFFSET 1 0 0
            }
          }
        }
      }
      JOINT rCollar
      {
        OFFSET -2.68224 19.2634 -4.8768
        CHANNELS 3 Zrotation Xrotation Yrotation
        JOINT rShldr
        {
          OFFSET -8.77824 -1.95073 1.46304
          CHANNELS 3 Zrotation Xrotation Yrotation
          JOINT rForeArm
          {
            OFFSET -28.1742 -1.7115 0.48768
            CHANNELS 3 Zrotation Xrotation Yrotation
            JOINT rHand
            {
              OFFSET -22.5879 0.773209 7.07136
              CHANNELS 3 Zrotation Xrotation Yrotation
              JOINT rThumb1
              {
                OFFSET -1.2192 -0.487915 3.41376
                CHANNELS 3 Zrotation Xrotation Yrotation
                JOINT rThumb2
                {
                  OFFSET -3.37035 -0.52449 3.41376
                  CHANNELS 3 Zrotation Xrotation Yrotation
                  End Site
                  {
                    OFFSET -1.78271 -1.18214 1.43049
                  }
                }
              }
              JOINT rIndex1
              {
                OFFSET -7.75947 0.938293 5.60832
                CHANNELS 3 Zrotation Xrotation Yrotation
                JOINT rIndex2
                {
                  OFFSET -2.54057 -0.884171 1.56538
                  CHANNELS 3 Zrotation Xrotation Yrotation
                  End Site
                  {
                    OFFSET -1.62519 -0.234802 1.16502
                  }
                }
              }
              JOINT rMid1
              {
                OFFSET -8.24714 1.18213 3.41376
                CHANNELS 3 Zrotation Xrotation Yrotation
                JOINT rMid2
                {
                  OFFSET -3.10165 -0.590103 1.0647
                  CHANNELS 3 Zrotation Xrotation Yrotation
                  End Site
                  {
                    OFFSET -2.48547 -0.328903 0.83742
                  }
                }
              }
              JOINT rRing1
              {
                OFFSET -8.82822 0.546677 1.51678
                CHANNELS 3 Zrotation Xrotation Yrotation
                JOINT rRing2
                {
                  OFFSET -2.60934 -0.819778 -0.0198488
                  CHANNELS 3 Zrotation Xrotation Yrotation
                  End Site
                  {
                    OFFSET -2.33842 -0.294052 0.168128
                  }
                }
              }
              JOINT rPinky1
              {
                OFFSET -8.27202 -0.0477905 -0.4584
                CHANNELS 3 Zrotation Xrotation Yrotation
                JOINT rPinky2
                {
                  OFFSET -1.82734 -0.647385 -0.700984
                  CHANNELS 3 Zrotation Xrotation Yrotation
                  End Site
                  {
                    OFFSET -1.69225 -0.51767 -0.607171
                  }
                }
              }
            }
          }
        }
      }
      JOINT lCollar
      {
        OFFSET 2.68224 19.2634 -4.8768
        CHANNELS 3 Zrotation Xrotation Yrotation
        JOINT lShldr
        {
          OFFSET 8.77824 -1.95073 1.46304
          CHANNELS 3 Zrotation Xrotation Yrotation
          JOINT lForeArm
          {
            OFFSET 28.1742 -1.7115 0.48768
            CHANNELS 3 Zrotation Xrotation Yrotation
            JOINT lHand
            {
              OFFSET 22.5879 0.773209 7.07136
              CHANNELS 3 Zrotation Xrotation Yrotation
              JOINT lThumb1
              {
                OFFSET 1.2192 -0.487915 3.41376
                CHANNELS 3 Zrotation Xrotation Yrotation
                JOINT lThumb2
                {
                  OFFSET 3.37035 -0.52449 3.41376
                  CHANNELS 3 Zrotation Xrotation Yrotation
                  End Site
                  {
                    OFFSET 1.78271 -1.18214 1.43049
                  }
                }
              }
              JOINT lIndex1
              {
                OFFSET 7.75947 0.938293 5.60832
                CHANNELS 3 Zrotation Xrotation Yrotation
                JOINT lIndex2
                {
                  OFFSET 2.54057 -0.884171 1.56538
                  CHANNELS 3 Zrotation Xrotation Yrotation
                  End Site
                  {
                    OFFSET 1.62519 -0.234802 1.16502
                  }
                }
              }
              JOINT lMid1
              {
                OFFSET 8.24714 1.18213 3.41376
                CHANNELS 3 Zrotation Xrotation Yrotation
                JOINT lMid2
                {
                  OFFSET 3.10165 -0.590103 1.0647
                  CHANNELS 3 Zrotation Xrotation Yrotation
                  End Site
                  {
                    OFFSET 2.48547 -0.328903 0.83742
                  }
                }
              }
              JOINT lRing1
              {
                OFFSET 8.82822 0.546677 1.51678
                CHANNELS 3 Zrotation Xrotation Yrotation
                JOINT lRing2
                {
                  OFFSET 2.60934 -0.819778 -0.0198488
                  CHANNELS 3 Zrotation Xrotation Yrotation
                  End Site
                  {
                    OFFSET 2.33842 -0.294052 0.168128
                  }
                }
              }
              JOINT lPinky1
              {
                OFFSET 8.27202 -0.0477905 -0.4584
                CHANNELS 3 Zrotation Xrotation Yrotation
                JOINT lPinky2
                {
                  OFFSET 1.82734 -0.647385 -0.700984
                  CHANNELS 3 Zrotation Xrotation Yrotation
                  End Site
                  {
                    OFFSET 1.69225 -0.51767 -0.607171
                  }
                }
              }
            }
          }
        }
      }
    }
  }
  JOINT rButtock
  {
    OFFSET -8.77824 4.35084 1.2192
    CHANNELS 3 Zrotation Xrotation Yrotation
    JOINT rThigh
    {
      OFFSET 0 -1.70687 -2.19456
      CHANNELS 3 Zrotation Xrotation Yrotation
      JOINT rShin
      {
        OFFSET 0 -36.8199 0.73152
        CHANNELS 3 Zrotation Xrotation Yrotation
        JOINT rFoot
        {
          OFFSET 0.73152 -45.1104 -5.12064
          CHANNELS 3 Zrotation Xrotation Yrotation
          End Site
          {
            OFFSET -1.1221 -3.69964 12.103
          }
        }
      }
    }
  }
  JOINT lButtock
  {
    OFFSET 8.77824 4.35084 1.2192
    CHANNELS 3 Zrotation Xrotation Yrotation
    JOINT lThigh
    {
      OFFSET 0 -1.70687 -2.19456
      CHANNELS 3 Zrotation Xrotation Yrotation
      JOINT lShin
      {
        OFFSET 0 -36.8199 0.73152
        CHANNELS 3 Zrotation Xrotation Yrotation
        JOINT lFoot
        {
          OFFSET -0.73152 -45.1104 -5.12064
          CHANNELS 3 Zrotation Xrotation Yrotation
          End Site
          {
            OFFSET 1.1221 -3.69964 12.103
          }
        }
      }
    }
  }
}
MOTION
Frames:	8
Frame Time:	0.03333
0.0709 45.9488 -0.46140000000000003 -145.647161 63.378905 -139.379014 10.072347 4.878157 -0.0 2.194748 -7.805174 5.905946 2.62776 12.394662 21.527126 -3.765524 -24.053297 -3.857457 0.000602 -0.0 -0.003628 0.000801 0.0 0.000517 -6.028777 25.557239 7.218776 -97.700979 -14.757237 -164.021813 92.397982 -35.927238 -104.850666 -52.973363 45.563804 33.05578 -5.433979 5.264859 1.077535 -78.523088 22.267082 73.032906 -14.228929 19.203529 9.559055 0.519777 11.9424 1.878657 -161.153024 -8.160671 143.465324 -161.242267 1.253161 142.227347 0.000439 -0.018374 -0.006877 10.981294 -52.495244 -6.83745 12.990285 44.344114 10.759799 -157.086981 43.463539 -148.734848 0.272965 1.606805 -0.361118 111.452748 17.396602 -96.56953 127.295646 -49.785161 150.159925 -6.719567 12.498079 -17.493802 95.360117 37.75103 -54.683408 27.300793 -8.655403 -34.29 153.453711 -21.067649 -121.744398 7.776179 32.042212 -0.241058 8.305603 20.652664 -5.560564 10.618979 32.275483 -8.547551 0.000383 -0.018604 0.005211 155.416251 -1.210838 -171.994436 -15.079584 52.519877 -11.940036 147.818313 10.331641 142.90603 0.0 -0.000622 0.000489 -14.34611 9.770763 -180.0 4.176464 -40.169185 87.634494 -31.126777 -66.247763 50.940201 179.987723 75.748514 0.0084 -145.285908 -16.967427 67.157629 91.355842 15.364153 -2.092903 -146.417814 -42.396182 104.607636
0.003 45.9786 -0.45519999999999994 -146.116318 63.587632 -139.877538 9.716786 5.067711 -0.459419 2.307461 -7.816654 6.346766 -3.618649 31.407885 -144.777227 17.376734 41.495031 158.815228 0.001395 -0.0 -0.0019 0.001395 -0.0 -0.0019 -158.514497 -30.701989 167.039036 132.655048 9.648504 155.334616 -178.933406 -2.473348 36.465773 -151.788852 25.334231 132.210625 -89.136158 38.427784 50.299174 20.288828 -26.94203 22.348419 -138.49395 4.895995 114.863981 6.400562 5.060272 -8.411437 -36.036634 51.723098 29.83203 -168.773258 -22.202131 144.225301 -145.063499 -3.306112 -178.088431 12.188688 29.590552 -5.632984 -80.937671 -51.226206 -79.360265 -24.115648 -40.938068 -26.127805 33.836241 -85.665822 55.253521 109.081899 -32.217323 -170.210026 -171.514966 23.411204 162.046006 166.443492 72.042518 -161.995179 -13.164772 -13.115378 0.520366 -29.454822 -74.887469 28.980983 -28.868989 -48.979136 4.340225 147.320987 1.037262 -111.81613 -173.123608 -66.297867 -137.613348 163.940035 -6.198389 -143.210987 145.121709 2.055614 179.772757 -11.512267 22.926527 6.36877 -19.449338 67.282235 -13.092584 -14.872096 44.096866 -7.775005 -0.003996 -0.000102 -0.001998 -13.724005 10.104311 -125.69267 -33.304848 -12.616178 -179.414571 -53.813696 -55.468777 -129.725284 179.995164 75.749708 0.00499 -144.435722 -16.006303 0.0 80.210844 82.901922 -7.596135 -1.654674 -45.270307 -94.694625
-0.0931 46.0376 -0.4336 -146.716142 63.846518 -140.490453 9.259833 5.268013 -0.470068 2.380863 -7.840687 6.313069 11.083229 25.38968 117.569185 -32.669915 18.896809 -93.771218 0.002122 0.0 0.000357 -0.003551 -0.0 0.001051 4.2239 -44.025529 -8.501148 -75.386816 -29.683533 -86.642983 95.61948 -35.725415 -101.442626 -51.610145 44.836397 31.671468 -93.743273 37.96387 53.548879 80.02175 -49.012654 35.402117 -134.54026 10.542065 112.296147 -23.53162 42.498792 10.294876 23.905182 -61.333587 1.399958 -0.123664 8.962986 1.530149 -145.122587 0.809677 -179.382525 11.494868 20.331268 -6.652591 26.966733 80.123068 10.143949 -11.390214 -25.531169 -12.184175 14.148871 43.061439 -15.996845 -99.34558 -40.624484 -128.761796 2.58586 -7.130391 -14.580834 20.400749 74.248377 -24.26431 -1.601278 -1.586074 0.224683 -33.423956 -58.020421 19.298662 -10.115099 -17.871581 4.534396 -123.926322 -61.921317 -64.43805 -89.036156 -81.391877 -59.760524 7.595287 26.12205 -6.235798 145.097897 -1.521063 178.65009 147.993705 -43.026507 170.609602 87.575044 -50.205557 85.929348 4.663074 -17.80701 7.987132 179.961898 75.749785 0.031349 101.50426 75.961396 13.522101 -33.730387 12.490816 4.804947 -20.452937 -28.620202 28.394586 0.0 -0.000171 0.000629 99.030077 -54.837604 -0.0 -94.106221 6.731554 -158.84941 154.558475 74.695823 121.708952
-0.22899999999999998 46.1239 -0.3896 -147.369774 64.138488 -141.141688 8.691328 5.501627 -0.0 2.407846 -7.882433 5.824068 8.543912 15.57934 57.888463 -24.011024 -13.837069 -42.159767 -0.000536 0.0 -0.004338 -0.000304 0.0 -0.0002 -155.460043 -3.227703 161.777818 98.230764 -28.569258 124.376178 -13.973203 -38.723513 97.774183 -9.320802 -48.571431 -11.500556 -0.491201 0.484839 0.077451 -15.069338 14.896216 13.316674 -166.408526 -43.367506 122.14614 -164.231631 -26.417875 118.643322 -36.036624 51.722974 29.832369 80.70036 -77.900195 52.068467 0.000329 0.063669 0.020735 8.111852 22.05233 3.178061 -143.019269 5.57459 -139.891259 -155.821256 37.935162 -146.099065 157.881763 -65.63801 -175.443702 -68.166513 17.720674 14.258611 124.776115 48.290853 -114.195091 -11.806245 -4.027423 -20.57075 -114.538462 -50.244536 -55.721064 179.757212 -76.158147 -140.693406 7.259984 10.780665 -4.547859 -9.65805 0.939577 0.429971 167.298709 -27.767559 -145.259616 -5.125344 -5.876627 0.329207 132.480712 54.101774 -155.531046 -6.793117 7.079198 5.990287 -44.724187 86.378796 5.360094 -69.189347 85.021617 31.971963 179.986868 75.749893 0.010805 103.447497 73.166624 180.0 30.563558 -13.430802 -90.658296 -68.313736 29.366571 -14.185213 -0.00266 -0.000252 -0.00266 98.26071 -57.442786 180.0 92.091871 5.169236 160.798148 -6.580594 54.442273 93.89732
-0.42640000000000006 46.2329 -0.3128 -148.104837 64.491387 -141.874669 8.078883 5.768292 -0.480221 2.507168 -7.874848 6.378501 -9.798195 20.352571 -65.14219 36.891015 3.089245 84.225295 -0.002736 0.0 -0.002739 0.00318 0.0 0.000691 0.023208 -0.138649 -0.030726 144.259189 56.001983 -84.39144 15.963007 -48.018748 118.009318 -14.186921 -23.617461 -6.215726 -169.571582 -7.253987 89.930212 -71.461302 1.560809 22.407294 -132.817898 12.806643 111.10839 5.671871 4.884124 -7.955494 89.034454 -81.394197 59.758427 80.724324 -77.816961 52.463422 -145.111893 -0.668811 -178.918854 11.486342 17.713061 -6.936737 16.817659 58.946322 12.654844 66.130506 85.418097 -28.783544 152.128377 14.113176 -157.5568 70.560484 -35.93694 74.322152 -98.544248 57.081341 122.057046 -163.045823 -7.517146 -162.165034 160.052001 2.213051 -88.877227 -41.533571 -60.540019 -34.606186 140.165948 2.326575 -115.877566 49.170789 54.544103 -32.661022 89.83518 60.701464 -81.262712 169.285034 -23.685307 -144.120982 0.013217 -1.323218 0.415485 -9.80732 -62.545962 9.189001 -1.13507 3.04008 -1.046454 -38.184389 81.636697 1.49584 -0.004625 0.000197 -0.002312 -14.974831 9.853266 -72.595497 -44.485864 13.337991 -81.821647 18.176907 26.70955 121.825451 179.99262 75.751199 0.005049 -146.66429 -15.903277 91.199042 88.060821 4.731189 -164.910033 151.225216 -75.514498 -106.867242
-0.6824 46.353100000000005 -0.18339999999999998 -149.00203 64.930044 -142.782964 7.353207 6.086067 -0.47755 2.566592 -7.885425 6.490758 11.434488 22.336621 98.443295 -34.11296 8.000318 -77.472954 -0.00252 0.0 -0.000684 0.003153 -0.0 -0.001392 -6.043585 25.598877 7.235472 144.464809 78.036088 -71.694527 -46.626033 -74.718249 58.806947 -9.638773 -46.801297 -11.159317 27.452268 -26.098462 2.268297 -42.678107 32.095722 24.412685 -140.165729 2.326443 115.877461 45.078285 -55.084599 1.687754 -154.141864 11.634353 139.428377 143.684978 -74.434365 111.820193 -145.098663 -1.522389 -178.650581 12.045328 29.417569 -5.659859 -162.364644 72.063788 -150.902281 -6.567087 -17.406767 -8.21257 33.846247 -85.665171 55.263634 -67.873119 6.329759 -9.017803 177.203014 -14.067779 -128.458395 -87.383908 -60.738174 -90.959245 95.36138 37.750564 -54.682272 -107.992412 -51.872219 -48.326899 -37.213818 -57.918479 0.645428 56.657977 51.601046 -46.70071 171.869606 -41.091281 -145.160342 169.075067 -21.922387 -143.952728 77.742189 72.901857 -95.870345 158.600512 -28.210011 179.689843 1.149416 -2.914364 1.066025 -1.449607 -2.97105 0.92201 0.0 -0.000443 0.001468 -17.878412 8.785297 85.933894 47.935002 -1.941054 89.675081 -143.267166 28.603658 -139.260542 -0.000252 0.000637 0.000324 98.266127 -56.90378 -80.892876 -92.468891 -73.805789 163.128381 -0.109886 -45.80797 -95.145346
-0.9738 46.4825 0.0078 -150.026847 65.404902 -143.839837 4.32491 5.120871 64.792652 -3.92292 -7.088331 -59.02387 10.047325 27.789067 130.651862 -31.779172 26.615623 -104.42143 0.002896 0.0 0.000799 -0.002777 -0.0 0.001503 -159.220667 -48.724987 170.567761 -59.058656 18.150781 5.563542 -4.507881 -28.25938 -144.865248 -157.435244 15.04063 137.87227 5.514226 -5.499293 -0.587063 40.886124 -73.104376 -19.794573 -166.407718 -43.367782 122.14592 -60.848897 57.070453 47.302671 -168.111305 -30.287189 145.335842 -163.372244 -4.769517 142.979221 -72.758011 -72.144155 -89.771767 -150.974608 -0.740407 176.45162 0.098104 0.258441 0.091145 -127.323301 -31.012772 -125.730594 150.119891 21.701269 -155.220047 -64.468069 48.507821 83.115996 -90.182692 -67.176718 -41.573333 -145.287639 -39.717614 -146.40419 178.927072 -16.453909 -89.421436 138.672177 12.943334 -71.767373 -60.461166 -70.523863 -15.711186 23.476224 43.943436 -18.680461 -173.124022 -66.297793 -137.615462 170.590846 -26.243866 -143.991729 -0.006083 1.771389 -0.556438 61.662517 -86.80686 83.068391 46.80022 -48.625841 45.558657 146.911333 13.089717 143.433699 -0.076417 -0.00109 -0.057312 -17.360414 8.80505 -0.0 11.777905 44.403128 117.131454 126.08034 26.828683 161.331776 179.985616 75.74796 0.011835 -147.616455 -14.639975 93.040154 95.621459 -5.986707 53.491596 -67.278058 -20.23655 -176.724997
-1.2704 46.6308 0.2565 -151.144386 65.872787 -145.038085 3.723406 3.033722 129.119506 -6.006004 -0.980091 -123.129896 11.118158 25.495233 115.304304 -34.587567 18.230307 -91.180274 -0.003645 -0.0 0.000603 0.002032 -0.0 -9.5e-05 0.117944 -0.714063 -0.157897 91.775593 37.97107 -46.877508 174.620558 25.058716 40.304467 -147.719698 31.164423 128.059208 71.831096 -48.263248 25.792386 -149.094224 -7.960172 119.105145 -117.618697 28.168563 99.447363 29.922239 -39.340218 -4.516045 0.236292 -0.689132 -0.129639 42.563525 -69.8112 17.032947 0.005479 0.917385 0.28918 -23.447896 72.954677 36.40171 -26.563167 -38.861436 -25.605154 3.206083 -0.032985 -0.32011 81.469811 68.343321 -84.578853 -137.797351 14.423117 -176.676686 164.924461 -3.720551 -131.266971 -51.845714 -54.317162 -55.710818 -114.53883 -50.245099 -55.721235 132.439709 25.425181 -87.694033 1.162416 1.860795 -0.66867 9.675344 25.482213 -8.218528 141.108564 35.600746 -129.173448 1.244257 12.624677 -2.502121 0.013792 -1.3231 0.416236 156.329539 -23.137114 -174.563983 -9.966658 32.461697 -8.627567 -15.31575 46.037082 -8.658249 0.003248 -0.000628 0.003248 -19.203205 6.976829 70.774007 50.15515 8.7901 81.032489 71.982632 10.99084 167.299711 0.000418 0.002206 0.000627 95.387494 -57.927433 -84.358428 -43.652595 -82.317641 100.80633 -39.00488 -30.935963 36.051083
